/* XPM */
static char * tumbler_xpm[] = {
"240 30 63 1",
" 	c None",
".	c #B0A4A0",
"+	c #49494B",
"@	c #16110F",
"#	c #020204",
"$	c #0C0707",
"%	c #F9B24E",
"&	c #F07254",
"*	c #9B2E39",
"=	c #2F0B2A",
"-	c #A66D51",
";	c #FECB65",
">	c #8E8E8C",
",	c #272728",
"'	c #C9C8C7",
")	c #FD9633",
"!	c #FD7505",
"~	c #F85604",
"{	c #D76B16",
"]	c #64320C",
"^	c #2E160A",
"/	c #FDB432",
"(	c #FCB212",
"_	c #393736",
":	c #D9D9DA",
"<	c #B8B8B6",
"[	c #FC6604",
"}	c #FD9906",
"|	c #69696A",
"1	c #F9FDFB",
"2	c #F7D370",
"3	c #4F2C0C",
"4	c #B98422",
"5	c #FDC54D",
"6	c #FD8907",
"7	c #FEE599",
"8	c #595958",
"9	c #ACACAA",
"0	c #6C5125",
"a	c #8A827C",
"b	c #FEA707",
"c	c #FDDB8E",
"d	c #B04C06",
"e	c #FEEBB0",
"f	c #767677",
"g	c #EA700B",
"h	c #FEEFCC",
"i	c #A36016",
"j	c #FE8F17",
"k	c #D2CECC",
"l	c #EADECC",
"m	c #D2A173",
"n	c #E8EAEA",
"o	c #EBC8A4",
"p	c #AEA591",
"q	c #D98B24",
"r	c #FE9EC4",
"s	c #FEB28D",
"t	c #5A195A",
"u	c #7E5E7C",
"v	c #AA8771",
"w	c #852129",
"x	c #FE2A7C",
"                                                                                                                                                                                                                                                ",
"                                                                                                                                                                                                                                                ",
"                                                                                                                                                                                                                                                ",
"                                                                                                                                                                                                                                                ",
"                                                                                                                                                                                                                                                ",
"           .+@##$+                                                                                                              %&*$$####$=-&;                                                                                                  ",
"          >#$$##@#,                                                                                   ''''''               )%!!~{]@########^]%;/%%(                                                                                             ",
"          @+'>#_:<,>                       ###                                                [}[   |'111111'|   [![      2/!~~~3###########^4/56!(7            *########*                      ++88+++                       |@$#$,            ",
"         >#99^0|_1a_a                    #######                                              }b}! ##$|'11'|=## !}}!      c;}~[d^###########$3bb!65e     ))[[~d^$########$^d~[[))             ++88|||||8+          >@_a      $#$##$#$     f,@,> ",
" | a8@@$$$@-[g;hc7+####_8f               #@<#<###                                             !%}}!]@##||||##^0!%%[       h;56g]#############$i}!)ch    c5j~~d^############^d[~j%c          #+++8|||||||8,|    |    ._##,>  +,99$$<k+_ f,##,f   ",
" ,$######$g[j%ce72i#######$,a           ##<>$><##                      |######|                [}%}}[########[}%}[         ;;b{^##############366%c     h;/!g]$###########$$]g!/;l         @#+++++88+8||8__  |##      f###$|@f:,38_::#####+     ",
"      +##$0~~{~ggmi###|                 #$#$$#####                   |$:1111n'<$|               [b%}}[#######b/}!          7;5i###############@i6%e      ;;(i^##############^{(;;         f_,+++#,_,++++,,,$###        f$####0)~)ho7p####|      ",
"        $##@|>>>a_###+          ###    ##]{g;ec-###    ##          m%#'1111nn<<-$mm              ]#[}[#######[#$#           7m$################@;7        ;5]################]%c          _,+++$###########=##          f####!!%c7e;#^##,       ",
"        ##@'1111nk|$#$            #######i[gqq%-########         rs%)j#nnn99>9>,()%sr           #^$#############3             ##################            @################,          |$,,+,,+'>#_:<,######            $####ggjj)##^#$        ",
"       ,##>1111n''9+@#f            #####@f<11nn9$######          s%)j6{#@>||>@#{6j)%s   |       #$##############@             ##################            8###############$          ####$,_,99^0|_1>####q              ##############        ",
"       ##+11111n'<<a,$,              ##$f:111111>@##         ##|[)j!6}}#^#@@$^#}}6!j)[|##       #################$            #################$         t   #############,#,         ###&#################!b             ##############        ",
"      f##f11111n:<<9+@@             ###_'11111119+##          ##!&gjbb}{3####^{bb}j6bg##        #################$            _###############$f          tt _############$#u t      ##|g)j####$q;;))!#####j)             ##@3--a-v+^##_        ",
"      _##.111111:<9<|,#f            ###:n111111n<<$#           ##[q/((bg####@#qb((/qg##         _###############$f            f###############@            uttt############, t           s%####$^q;)!=####)%s             ##_:111n:kf@#$        ",
"      ,#$'111111:<<<f@$$           7;-$f1111111:<f$$-;7         |##%/(bbd###^dbb(/%###           #############,##$,a           #############_#,             ==$$###########,t#           rs%###'k12/11n###%sr            @#,'1111nk<9|,#+       ",
"      $#@:111111:<9<>,#$          e/}6!d111111:'<0d!6}%e          =-%(bb*####*b}(/-=#       |,$###############@8f              ,############@#f              #=$##########$=t              m%#:'''''::n1@%p             ###|11111n:<<>+@@       ",
"      @#,:11111nk<9<f@#$          c%6}b6!1111:'<-!6b}6%c          |#4(}[*####*!}q4#$           >8@@$###########                 #############@                =,#########$@=                 |u:''''k:nt|               _##9111111:<<<|@$8      ",
"    e2b$#<1111n:'9<<f#$-;7       hc)!bbb}[11'<<<[}b(b!)ch          $#idw######w{i#$                ############                 $############+                  $##>##>##8                     |######|                 @#@'111111:<<<f,$$      ",
"   7;5bb4p1111:'<9<90d!6}%e      e56!b((b6~9<'.~6b((b!6;e           ############$#|                 ##########                +##$############|                 8#>n||n>@                                               #@#,:1111n<9<f,#$#      ",
"   ;;b6/2;onnk<<9<<-!}b}6%c      7/!6/5((}~####~}((556!(7             ##########$                   ##########          f,$######$################$,a            >_$##$_                                               c5}i0.n11:k9<9|]dq/;     ",
"  h;/66bbc;onk<9<<-[}b(}!jch      (%//;5(6~####~6(5;%/%(                #######                      ########              >+@@##$#############_8f                ;b6j![                                              ;%}6b/2cln'<<v{g6b}!)7    ",
"  c;j~[6bbcbf<<9>|~6b(bb!6;e           ;/)$####$)/;                                                   ######                     >#########,>                      ;b![                                              s/)~~!}b2b_f|_~6b((/66/l   ",
"  2%!~~[6b;b#_+_,^~}((5/6!(7             ########                                                      ####                       @########>                        ;[                                                ~~~~x)j)0$@$@wj(5~~~~x    ",
"   ))!!~!!)/@#$$$$~6(5;/%%(                                                                                                       >#$$##@#,                                                                                                     ",
"        %))$$####$$)%;                                                                                                             p+@##$+                                                                                                      ",
"                                                                                                                                                                                                                                                "};
