/* XPM */
static char * walker_xpm[] = {
"240 60 64 1",
" 	c None",
".	c #787878",
"+	c #000000",
"@	c #343434",
"#	c #080808",
"$	c #252525",
"%	c #181818",
"&	c #101010",
"*	c #464645",
"=	c #676767",
"-	c #ECECEC",
";	c #B9B9BA",
">	c #555555",
",	c #DEBD6B",
"'	c #FFC832",
")	c #F7F7F7",
"!	c #8F8F8F",
"~	c #FFA713",
"{	c #FFDEB5",
"]	c #6B6352",
"^	c #AAA9A9",
"/	c #FFCD56",
"(	c #FF9803",
"_	c #F9CE7B",
":	c #F5D496",
"<	c #FFBA34",
"[	c #FFBD63",
"}	c #FFB821",
"|	c #FFA900",
"1	c #FD8801",
"2	c #F68F11",
"3	c #F6B150",
"4	c #FEC948",
"5	c #CC911A",
"6	c #61491F",
"7	c #DBDBDB",
"8	c #FFFFF7",
"9	c #FFB715",
"0	c #FFA627",
"a	c #9A691D",
"b	c #AD9452",
"c	c #9C846B",
"d	c #FF9912",
"e	c #8A5006",
"f	c #080000",
"g	c #EFEBDF",
"h	c #B58410",
"i	c #342708",
"j	c #FFB508",
"k	c #FF962A",
"l	c #D3BD8A",
"m	c #C66B10",
"n	c #4F300B",
"o	c #563914",
"p	c #181000",
"q	c #BD6C01",
"r	c #24190D",
"s	c #CBCBCB",
"t	c #9C7342",
"u	c #393942",
"v	c #A58439",
"w	c #CED6D6",
"x	c #ADADB5",
"y	c #B5AD94",
"                                                                                                       .++.                                                                                                                    .++.             ",
"                                                                                                      @+++@.                                                                                                                  @#+++$            ",
"             .++.                                                        .++.                        @++++++.                        .++.                                                        .++.                        %%#++++$           ",
"            $++++&                         .++.                         *++#&*                       =-@++++%                       ++++%=                         .++#                         $+++#$                       =-;@++++=          ",
"           &+++++++                       >$&%@>                       $++++++>                     ,%%-++%%#.                     @++++++@                       >$%@##                       +++++++$                     '%%)!$>>#@          ",
"           =->+++++*                     $++++++@                      =-%++++#                    '~~!{]>>$++                     =)*+++++.                     @######*                      =-^&++#+=                   /(~!_,]*#+#          ",
"          :%%->+%$+#                     =-@+++++.                    ,%%-+@>@+*                <[}|123456&+++                    ,%%7$+$$#@                     =-*#####=                    ,%%8.*=*+$                |}9|(~40}a+++#          ",
"         99~!{b=>$++                    ,%%-@&@@#@                   4~~!{bc@++$                |||~(~~d(ef+++                   /9~!{b.>$+$                    _%%-#%*@#%                   :9~!::.$++%                ((((((d(1e+++&          ",
"      4_4~(<:/<a++++                   '}~!gb=*&+%                ~'9|(23_4hf++@                 ((1115eei+++=                j<<|(d34kef++$                   _~~!lbc>$##                <<<~(d449e+++$                 211112mn++%$=          ",
"      (((((00(mof++@                }49|(~//4a+++>                (((((~0d(e+++.                      n++++++                 (||jj~~11ef++=                j44j(d<445p##=                (|~|(~~(1n+++=                      c&++f&&>          ",
"       11111qer++&#*                (((|(~0((o+++                  111111m6#+++                      ^$>>#++#>                 1(1111qerf++                 ||||((dd1qp##                  1(((111e++++                      s%+++++++#         ",
"           tf++++&$$                 1111(1m6f+++*                     trp&++++$                    .>>$+++++&                     6ip+++++&                 1111111ep####                     anr++++##                    ^u#++++++++&        ",
"          !&+++++++%@                    ni#+f++++                     &&*$+++++*                  =$#++++++++@                    $++++++++*                    vni######*                    &++++++$*&                  *$=*#++++++++@       ",
"         *%@++#@&+++&@                  =++$$+++++*                   @%*$+++++++                 @++++&#+++++$>                  .$*@#++++++                    *##&%#####                   $$#++++++@>%               >##@sw>&++#@&+++!      ",
"        >#7w$++*>&+++&                  *%+**++##+#                  !!>&++++++++*               &+++$>>$+++++#@%!               !=*$++++++++*                  !###@$#####>                 #*!*&++++++$>              $++@s8-^@#++**+++%.     ",
"       @+=8).%++@>%+++@                >s.#@>++=$++                  !x$++&$#++++$              #++%>*%#+++++++*&&@*            ^!.%++#&+++++&                  .!%#@&#####$                $#!-!@&+$$+++@=            .#++.78-;>&++&>$+++++.   ",
"      >+#s88x*#++@>++++@              .^8;$@=++=$++@                .s.++$*%+++++$             %+%@;7$+++++++++@$+++!           =;*++%*$++++++                  ^8^@*#######               *+>78s.$+&*@++#>                ^88-;.$+++%>*$#++.   ",
"        >)887.$+++@>@%$%%             >88-=$>#+=$+++                !7@+@*&++++++%*               .8-*+++++++++@ =.             .^%+#*@+++++++.                .78).$##%@###>                .88-x>&+&>$++%!               !88-;.@++++#>!...    ",
"        .8887^*&+++$**=!             !;8)-!$*@+==+++                !^+&>%+++++++%$$              !8;@+++++++++%               !x!#+@*++++++++>                .88)=$##@@###@               !x88)s.$++%>*$#$              ^x88-x!@#++++%        ",
"        .8887;=$+++++++              !788-^@%>$#=+++               .!^+@@++++++++&@$             .s)!$++++++++++               cx!#&*&++++++++*                !888!$##@$###$               .-888-x>#++&*>==              !7887^.@#+++++        ",
"        !8887;!@#+++++$              !788-;>#$>@=#++               .xs%==%++++++++>              .77.$++++++++++               .xx%@*+++++++++*                !888^@##>%###%               !)888-;.$+++++!               b88)7^.@#+++++] '~    ",
"        ^8887x!*&++++++              .-88-s.&+%>=&++               .x).^^*&+++++++=             ,.;;=$++++++++++a}             !^7@*&+++++++++*                !888s*%&>&####               !-888-;.@#++++=            <2dv88-;!=$#+++++@/'(1   ",
"        !88)7x!>&++++++              .w8-7;!$++&$#++               .^8-7x=$+++++++]            9<t^!>%++++++++++a90             !8.@#+++++++++>                .888-!*%*%####               .7888-x!@#++++>           ~43kv88;x!>$++++++o'9(1   ",
"       /4g8ws;^>%++++++               ,{7w;^@+++++++                =887x.$+#+++ie9'           94b..@#+++++++++o590             =-s!%+++++++++>                =)8-s^=>>$####               !^888-;!@#++++*           0043kv8;!=@&++++++i~(1    ",
"     9~9'99w;;^>%+++++$               |}3l,,t*$+++++                ]x87^!@#++&63'j(           ~'4c*%+++++++++iv<~3           '<!ss^@++++++++p>                .;)7x!>@@%####               l.78)wx.@&++++>            (}//kvy.*$#++++++pent    ",
"      ~9<'9,ssx>&+++++%@+#            9~9~9}'43t#+++              /'5];sx!@&#*5''9(5=           ~9hi#++++++++ib491*           49/!;!@#+++++ra2h$f               .7;^.@#######             ~'/3c-wx^.@#++++@%+           (~9'kv@%#++++++++f+*    ",
"       3~<499ly*&+++++++++             [0~((d~'4h#++%%%           d~'5t^s!@ot3'9|(mo&           <(1o++++++++&t/9(eu            j9,.!@#+++&6~jj06#               =^^!>$#######@@           1<///llx!=$+++++++#            (|9kviff++++++++f#     ",
"        [(~<~vv@+++++++#+               :beq111d~i+++++            2~<5]!c5<'}~11e&+*            311n++++++#a/}|1n              |(!!%+#%6b/9d|0c                 .l!tahhhi#####            (}4//43,tr+++++++              ((|5p+++++++++fn      ",
"          3(((mn++++#nt               '<'3a*oq11q#++++              01~56oh2111ei+%.              311op#+++r3'~10                d1mi%6,/'9(1d                  /4////9||qp##%              11~<~~~56+++++&                 d3*++++++rokk       ",
"            3d11ennem                  ~~(11ao*n#++&                  321mmmmvc=!                   111++++td(23                   0qa44~(1k                   <}4<<<~(115o*                  1111112tn*=                      ^>*@*a2k         ",
"             .++.                                                                                                                    .++.                                                                                                       ",
"            $+++#@                                                                                                                  .$+++@                                                                                                      ",
"           $++++#%%                        .++.                                                        .++.                        .++++++@                        .++.                                                        .++.             ",
"          =++++@;-=                       $#+++$                         #++.                         =%++++                       %++++@-=                       *&#++*                         .++.                         &++++$            ",
"          @#>>$!)%%'                     $+++++++                       ##@%$>                       @++++++@                     .#%%++-%%,                     >++++++$                       >@%&$>                       +++++++&           ",
"          #+&*],_!~(/                   =+#++&^-=                      *######@                     .+++++*-=                     ++$>>]{!~~'                    #++++%)=                      @++++++$                     *+++++>-=           ",
"          #+++e}<4~(|9}|                $+*=*.8%%,                    =#####*-=                     @#$$+$-%%,                    +++&654321|}[<                *+@>@+-%%,                    .+++f+@-=                     #+$%+>-%%:          ",
"          #+++em(d((((((                %++$.::!~9:                   %#@*%#-%%_                    $+$>.b{!~9/                   ++++a(d0~(~|||                $++@cb{!~~/                   @#@@r$-%%,                    ++$>=b{!~99         ",
"          =$%++nmd11112                 $+++e944d(~<<<                ##$>cbl!~~_                   $++fak43d(|<'j                =+++iee5111((                 @++fh4_32(|9<~                %+&*=bg!~}'                   ++++a</:<(94_4      ",
"          >&&f+f&c                      =+++n11~~||~|(                =##p544<d(j44j                =++fe11~~jj||(                 ++++++i                      .+++e(d0d(|(((                >+++e4//~(|94}                @+++om(00(((((      ",
"         #+++++ff%;                      ++++e111(((1                  ##pq1dd((||||                 +++req1111(1                 >#++#>>$^                      +++#6m111111                  +++6(~0~(|(((                *&&++req11111       ",
"        &++++++++&u^                    ##++++rna                     ####pe1111111                 &+++++pi6                     &+++++$>>.                    $++++&prt                     *++++om1(1111                 $$&++++ft           ",
"       @++++++++#*=$*                  &*$++++++&                    *######inv                    *++++++ff$                    @++++++++#$=                  *+++++$*&&                     +++++f#in                    @%+++++++&!          ",
"      !+++&@#++&>ss@##>               %>@++++++#$$                   #####%&##*                    ++++++#@*$.                  >$+++++##++++@                 +++++++$*%@                   *+++++$$++=                  @&+++&@#++@%*         ",
"     .%+++**++#@^-8s@++$              >$++++++&*!*#                 >#####$@###!                  *++++++++$u=!               !$@#+++++$>>$+++&               *++++++++&>!!                  #+##ff**+%*                  &+++&>*++$s7#>        ",
"   .+++++$>&++&>;-87.++#.            =@+++$$+&@!-!#$                $#####&*#%!.                  &+++++&##+%.!^            *@&&*+++++++#%*>%++#              $++++#$&++$x!                  ++$=++>@#.s>                @+++&>@++%.)8=+@       ",
"   .++#$*>%+++$.;-88!                >#++@*#+$.s87>+*               #######*$^8!                  ++++++$*%++*;.           !+++$@+++++++++$7;@%+%             $+++++%*$++.s.                @++$=++=@$;8x.              @++++>@++#*;88s#+>      ",
"    ...!>#++++@.;-88^               !%++$>&+&>x-88.                >###@%##$.)8-.                .+++++++$*#+%^.             .= @+++++++++*-8.               *%++++++&*@+@7!                +++$=+#>$>-88>             %%$%@>@#++$.788)>        ",
"        &++++#@c;-88x^              $#$*>%++$.s)88x!               @###@@##%.)88.                >++++++++*@+#!^!               %+++++++++@;8^              $$%+++++++%>&+!!                +++==+@*$!-88;!             !=**$+++&*^7888.        ",
"        +++++#@.^7887!              ==>*#++&>x-888-.               $###$@##$!888!                *++++++++&*&#^x.               ++++++++++$!)s.             $@&++++++++@@+x!.               +++=#$>$@^-887!              +++++++$=;7888.        ",
"    ~' ]+++++#@.^7)88b               !+++++$.;-888)!               %###%>##@^888!                *+++++++++*@%^;!               ++++++++++$.w7.              >++++++++%==%s;.               ++#=@>%#>;-887!              $+++++#@!;7888!        ",
"   1('/o+++++#$=!;-88vd2<            =++++#@.;-888-!               ####&>&%*s888!                *+++++++++&*@w^.             }a++++++++++$=;;.,             =+++++++&*^^.);.               ++&=>%+&.s-88-.              ++++++&*!x7888^        ",
"   1(9'o++++++$>!x;88vk34~           >++++#@!x-8887.               ####%*%*!-888.                >+++++++++#@.8!             09a++++++++++&>!^t<9            ]+++++++$=x7-8^.               ++#$&++$!;7-8w.              +++++f&>!x7)88!        ",
"    1(~i++++++&@=!;8vk3/~0           *++++&@!;-888^!               ####$>>=^s-8)=                >+++++++++$!s-=             095@+++++++++#@.tb/9           'jer+++#+$.x788=                +++++++@^;s7{,               ++++++%>^xs78g4/       ",
"    toep++++++#$*t^vk//}(            >++++&@.x7)87.l               ####%@@>!^w);.                >p++++++++@^ss.<'           3~<vi+++++++++%*c/'~           (j'36&++#@!^w8x]                +++++$*t,,l3}|               $+++++%>^;;s99'9~9     ",
"    *++++++++++#%@vk'}~(           +%@++++#@.^^w7c3/'~             #######u.^xw.               f$h2er+++++#@!xc/94           *194bi++++++++#ih9~           =5(9''5*#&@!;s;=5'/              +++#t34'}~~9~}            #+@%+++++&>^ss,9'<9~      ",
"     #++++++++++fivk9|(            #+++++++$=!xll///<1           @@#######$>!x^=               #60j996&+++#@!!,9j            *e(9/t&+++++++fn1(<           &om(|9'3t@@!s^t5'~d           %%%++#h4'~d((~0[             +++++++++&*yl994<~3       ",
"      nf+++++++++p5|((              ++++++fit,34//4}(            #####ihhhat!l.                 c~(~94b6%#+%!!(|              n1|}/a#++++f+n113            *+&e11~}'<5c!]5<~1            +++++i~d111qeb:               +#+++++++$vv~<~d[        ",
"       kkor++++++*3d                 &++++fo5~9~<~11              %##pq||}4///4/                  d1d9'/,6%im1d                01('3r+++#po113              .%+ie1112ho65~10              ++++#q1mqo*a3'<'               tn#++++nmd((3          ",
"         k2a*@*>^                      =*nt2111111                  *o511(d<<<4}<                   k1(~44aq0                   32(dt++++111                   !=cvmmmm123                  &++#n6oa1((~~                  menne11d3            "};
